<svg xmlns="http://www.w3.org/2000/svg" viewBox="0 0 128 128" width="128" height="128" fill="none" stroke="#6fb8bf" stroke-width="3.5" stroke-linecap="round" stroke-linejoin="round">
  <!-- Wizard hat body -->
  <path d="M64 12 L38 90 L16 90 Q14 90 14 92 L14 96 Q14 100 18 102 Q40 114 64 114 Q88 114 110 102 Q114 100 114 96 L114 92 Q114 90 112 90 L90 90 Z" />
  <!-- Hat brim curve -->
  <path d="M14 96 Q40 84 64 88 Q88 84 114 96" />
  <!-- Hat band -->
  <path d="M38 90 Q52 82 64 84 Q76 82 90 90" />
  <!-- Sparkle top-right -->
  <line x1="100" y1="20" x2="100" y2="32" />
  <line x1="94" y1="26" x2="106" y2="26" />
  <!-- Sparkle left -->
  <line x1="24" y1="42" x2="24" y2="50" />
  <line x1="20" y1="46" x2="28" y2="46" />
  <!-- Sparkle small top -->
  <line x1="80" y1="38" x2="80" y2="44" />
  <line x1="77" y1="41" x2="83" y2="41" />
</svg>
